<svg width="270" height="270" viewBox="0 0 270 270" fill="none" xmlns="http://www.w3.org/2000/svg">
<path d="M58.4281 69.7572C68.2101 69.7572 76.1401 61.8273 76.1401 52.0452C76.1401 42.2632 68.2101 34.3332 58.4281 34.3332C48.646 34.3332 40.7161 42.2632 40.7161 52.0452C40.7161 61.8273 48.646 69.7572 58.4281 69.7572Z" fill="#EBEBEB"/>
<path d="M71.1878 64.3896C77.7885 57.789 77.7885 47.0872 71.1878 40.4866C64.5872 33.8859 53.8854 33.8859 47.2848 40.4866C40.6841 47.0872 40.6841 57.789 47.2848 64.3896C53.8854 70.9902 64.5872 70.9902 71.1878 64.3896Z" fill="#DBDBDB"/>
<path d="M65.1886 67.1119C73.2916 63.825 77.1957 54.5917 73.9087 46.4887C70.6217 38.3858 61.3884 34.4817 53.2855 37.7687C45.1826 41.0556 41.2785 50.289 44.5655 58.3919C47.8524 66.4948 57.0857 70.3989 65.1886 67.1119Z" fill="white"/>
<path d="M59.4432 37.7568H59.0382V40.1544H59.4432V37.7568Z" fill="#EBEBEB"/>
<path d="M52.0684 39.6258L51.7177 39.8283L52.9161 41.9049L53.2669 41.7024L52.0684 39.6258Z" fill="#EBEBEB"/>
<path d="M46.6178 44.9171L46.4154 45.2679L48.492 46.4664L48.6944 46.1156L46.6178 44.9171Z" fill="#EBEBEB"/>
<path d="M46.953 52.2396H44.5554V52.6446H46.953V52.2396Z" fill="#EBEBEB"/>
<path d="M48.6877 58.6475L46.6018 59.8463L46.8043 60.1986L48.8902 58.9998L48.6877 58.6475Z" fill="#EBEBEB"/>
<path d="M52.9193 62.9817L51.7216 65.0587L52.0724 65.261L53.2701 63.184L52.9193 62.9817Z" fill="#EBEBEB"/>
<path d="M59.4432 64.7244H59.0382V67.122H59.4432V64.7244Z" fill="#EBEBEB"/>
<path d="M65.5561 62.9906L65.2053 63.1931L66.4041 65.2695L66.7549 65.067L65.5561 62.9906Z" fill="#EBEBEB"/>
<path d="M69.9807 58.4088L69.7782 58.7596L71.8546 59.9584L72.0571 59.6076L69.9807 58.4088Z" fill="#EBEBEB"/>
<path d="M73.9261 52.2396H71.5231V52.6446H73.9261V52.2396Z" fill="#EBEBEB"/>
<path d="M72.1405 45.1076L70.0546 46.3064L70.2571 46.6587L72.343 45.4599L72.1405 45.1076Z" fill="#EBEBEB"/>
<path d="M66.4068 39.6285L65.2091 41.7055L65.56 41.9079L66.7577 39.8308L66.4068 39.6285Z" fill="#EBEBEB"/>
<path d="M61.5872 47.3627L54.6417 61.0175L55.0027 61.2012L61.9482 47.5463L61.5872 47.3627Z" fill="#EBEBEB"/>
<path d="M58.4298 46.9972L57.9003 47.1032L60.8618 61.8973L61.3913 61.7913L58.4298 46.9972Z" fill="#DBDBDB"/>
<path d="M249.302 46.8774H172.552V192.094H249.302V46.8774Z" fill="#EBEBEB"/>
<path d="M242.73 54.1026H179.123V146.302H242.73V54.1026Z" fill="white"/>
<path d="M183.184 206.707H178.114V192.094H187.137L183.184 206.707Z" fill="#EBEBEB"/>
<path d="M187.137 192.094L185.679 197.478H178.108V192.094H187.137Z" fill="#C7C7C7"/>
<path d="M238.664 206.707H243.734V192.094H234.711L238.664 206.707Z" fill="#EBEBEB"/>
<path d="M234.711 192.094L236.169 197.478H243.74V192.094H234.711Z" fill="#C7C7C7"/>
<path d="M242.73 152.885C237.962 152.982 233.199 153.036 228.436 153.074C223.674 153.112 218.905 153.117 214.143 153.144L214.402 152.885C214.402 155.277 214.402 157.675 214.402 160.072V167.26C214.348 172.055 214.299 176.845 214.18 181.64C214.056 176.845 214.008 172.055 213.954 167.26L213.927 160.072C213.927 157.675 213.927 155.277 213.927 152.885V152.62H214.186C218.949 152.647 223.711 152.62 228.48 152.69C233.248 152.761 237.962 152.782 242.73 152.885Z" fill="#C7C7C7"/>
<path d="M214.142 185.76C218.905 185.657 223.668 185.603 228.436 185.566C233.204 185.528 237.962 185.522 242.73 185.495L242.46 185.76C242.46 183.406 242.46 181.057 242.46 178.708L242.492 171.655C242.541 166.952 242.59 162.254 242.714 157.55C242.833 162.254 242.881 166.952 242.93 171.655L242.962 178.708C242.962 181.057 242.989 183.406 242.962 185.76V186.019H242.703C237.935 185.992 233.172 186.019 228.409 185.954C223.646 185.89 218.905 185.841 214.142 185.76Z" fill="#C7C7C7"/>
<path d="M217.339 172.957H219.505V164.662H217.339V172.957Z" fill="#C7C7C7"/>
<path d="M179.123 152.885C183.886 152.782 188.649 152.728 193.417 152.69C198.185 152.653 202.943 152.647 207.711 152.62H207.965V152.885C207.965 155.277 207.965 157.675 207.965 160.072L207.932 167.26C207.884 172.055 207.835 176.845 207.711 181.64C207.587 176.845 207.538 172.055 207.484 167.26L207.457 160.072C207.457 157.675 207.457 155.277 207.457 152.885L207.716 153.144C202.948 153.117 198.185 153.144 193.423 153.074C188.66 153.004 183.886 152.982 179.123 152.885Z" fill="#C7C7C7"/>
<path d="M207.711 185.76C202.943 185.857 198.18 185.911 193.417 185.954C188.654 185.998 183.886 185.992 179.123 186.019H178.864V185.76C178.864 183.406 178.864 181.057 178.864 178.708L178.897 171.655C178.945 166.952 178.994 162.254 179.118 157.55C179.237 162.254 179.285 166.952 179.334 171.655L179.366 178.708C179.366 181.057 179.393 183.406 179.366 185.76L179.107 185.495C183.87 185.495 188.633 185.495 193.401 185.566C198.169 185.636 202.943 185.641 207.711 185.76Z" fill="#C7C7C7"/>
<path d="M204.509 164.657H202.344V172.951H204.509V164.657Z" fill="#C7C7C7"/>
<path d="M242.73 83.5488H179.123V84.537H242.73V83.5488Z" fill="#C7C7C7"/>
<path d="M242.73 103.561H179.123V104.549H242.73V103.561Z" fill="#C7C7C7"/>
<path d="M242.73 123.574H179.123V124.562H242.73V123.574Z" fill="#C7C7C7"/>
<path d="M211.658 54.1026H210.195V146.302H211.658V54.1026Z" fill="#EBEBEB"/>
<path d="M94.4623 151.254L95.7529 159.003L104.506 206.275H105.916L99.5545 159.003L98.6095 151.254H94.4623Z" fill="#EBEBEB"/>
<path d="M98.6095 151.254H94.4623L95.7529 159.003H99.5545L98.6095 151.254Z" fill="#C7C7C7"/>
<path d="M66.9762 206.275H68.3856L77.139 159.003L78.4296 151.254H74.2824L73.3374 159.003L66.9762 206.275Z" fill="#EBEBEB"/>
<path d="M74.2824 151.254L73.3374 159.003H77.139L78.4296 151.254H74.2824Z" fill="#C7C7C7"/>
<path d="M40.7214 206.275H42.1308L50.8842 159.003L52.1748 151.254H48.0276L47.0826 159.003L40.7214 206.275Z" fill="#EBEBEB"/>
<path d="M47.0826 159.003H50.8842L52.1748 151.254H48.0276L47.0826 159.003Z" fill="#C7C7C7"/>
<path d="M42.957 154.899H107.098V149.693L83.0844 148.138L75.0168 101.596H45.4032L42.957 154.899Z" fill="#EBEBEB"/>
<path d="M42.957 154.899H46.4562L48.735 101.596H45.4032L42.957 154.899Z" fill="#C7C7C7"/>
<path d="M135 247.244C175.363 247.244 208.084 241.759 208.084 234.992C208.084 228.225 175.363 222.739 135 222.739C94.637 222.739 61.9164 228.225 61.9164 234.992C61.9164 241.759 94.637 247.244 135 247.244Z" fill="#EBEBEB"/>
<path d="M47.9898 240.16C62.8717 240.16 74.9358 237.614 74.9358 234.473C74.9358 231.333 62.8717 228.787 47.9898 228.787C33.108 228.787 21.0438 231.333 21.0438 234.473C21.0438 237.614 33.108 240.16 47.9898 240.16Z" fill="#EBEBEB"/>
<path d="M216.216 240.16C231.098 240.16 243.162 237.614 243.162 234.473C243.162 231.333 231.098 228.787 216.216 228.787C201.334 228.787 189.27 231.333 189.27 234.473C189.27 237.614 201.334 240.16 216.216 240.16Z" fill="#EBEBEB"/>
<path d="M18.036 206.707L47.277 206.577L76.518 206.528L135 206.442L193.482 206.528L222.723 206.577L251.964 206.707L222.723 206.842L193.482 206.89L135 206.977L76.518 206.89L47.277 206.842L18.036 206.707Z" fill="#263238"/>
<path d="M147.766 130.453H106.304V206.626H147.766V130.453Z" fill="#455A64"/>
<path d="M147.766 130.453H106.304V135.421H147.766V130.453Z" fill="#263238"/>
<path d="M165.569 126.452H22.5126V130.459H165.569V126.452Z" fill="#455A64"/>
<path d="M31.3577 130.459L31.2227 135.421L29.4785 206.631H26.3087V130.459H31.3577Z" fill="#455A64"/>
<path d="M26.3087 130.459H31.3577L31.2227 135.421H26.3087V130.459Z" fill="#263238"/>
<path d="M161.816 130.453H147.766V206.626H161.816V130.453Z" fill="#37474F"/>
<path d="M161.816 130.453H147.766V135.421H161.816V130.453Z" fill="#263238"/>
<path d="M64.3842 175.694C62.5482 173.896 60.1776 171.725 57.3642 172.498C54.729 173.227 53.7192 176.11 53.244 178.508C52.6392 181.597 52.164 184.718 51.6726 187.834C51.1812 190.949 50.7114 194.125 50.2578 197.273C50.0058 199.051 49.7538 200.828 49.5018 202.603L49.14 205.27C49.0212 206.145 48.8754 207.014 48.8268 207.895C48.8268 208.175 49.2534 208.219 49.3128 207.949C49.653 206.464 49.7934 204.925 50.0094 203.418C50.2254 201.911 50.4468 200.394 50.6736 198.877C51.1128 195.871 51.561 192.866 52.0182 189.864C52.4754 186.862 52.9434 183.857 53.4222 180.851C53.8272 178.303 54.0162 175.144 56.2734 173.464C56.8852 173.044 57.594 172.787 58.333 172.717C59.0719 172.647 59.8164 172.767 60.4962 173.065C61.9812 173.632 63.1962 174.685 64.3302 175.765C64.368 175.781 64.4166 175.727 64.3842 175.694Z" fill="#263238"/>
<path d="M61.8732 173.88C61.8732 173.88 58.1256 172.53 56.2734 175.262C54.4212 177.995 56.6352 184.982 73.7046 188.881C73.2021 183.546 71.8132 178.332 69.5952 173.453C65.9394 165.456 59.4 168.48 61.8732 173.88Z" fill="#F8F8F8"/>
<path d="M72.7217 187.726C72.4645 187.246 72.1778 186.782 71.8631 186.338C71.5769 185.9 71.2907 185.463 70.9991 185.026C70.7777 184.696 70.5563 184.372 70.3295 184.048C70.3295 183.967 70.3295 183.886 70.3619 183.805C70.3943 183.724 70.3997 183.508 70.4213 183.362C70.4645 183.038 70.5077 182.72 70.5563 182.401C70.6049 182.083 70.6535 181.769 70.7183 181.451C70.7564 181.109 70.8306 180.772 70.9397 180.446C70.9397 180.398 70.8749 180.371 70.8641 180.446C70.8284 180.63 70.7779 180.811 70.7129 180.986L70.5995 181.418C70.5185 181.742 70.4375 182.066 70.3619 182.396C70.2863 182.725 70.2377 182.995 70.1891 183.303C70.1639 183.451 70.1423 183.596 70.1243 183.74C69.8165 183.303 69.5087 182.876 69.1901 182.455C68.2829 181.262 67.3217 180.112 66.3335 178.988C66.3335 178.988 66.3335 178.988 66.3335 178.961C66.4253 177.163 66.3821 175.392 66.7817 173.626C66.7817 173.578 66.7169 173.551 66.7061 173.599C66.2549 175.262 66.0404 176.98 66.0689 178.702C65.7125 178.303 65.3561 177.908 64.9889 177.52C64.1573 176.623 63.3095 175.745 62.4455 174.884C62.4131 174.852 62.3591 174.884 62.3915 174.938C63.8279 176.483 65.1941 178.097 66.5225 179.739C65.4827 179.723 64.4427 179.761 63.4067 179.852C62.2457 179.939 61.1009 180.09 59.9507 180.247C59.9021 180.247 59.9129 180.328 59.9507 180.322C61.0946 180.158 62.2465 180.055 63.4013 180.014C64.5191 179.966 65.6261 180.014 66.7385 180.014C67.4567 180.905 68.1695 181.802 68.8661 182.714H67.9265C67.3865 182.714 66.8843 182.763 66.3713 182.806C65.3108 182.892 64.2572 183.049 63.2177 183.276C63.2077 183.276 63.1981 183.28 63.191 183.287C63.1839 183.294 63.1799 183.304 63.1799 183.314C63.1799 183.324 63.1839 183.333 63.191 183.341C63.1981 183.348 63.2077 183.352 63.2177 183.352C64.2653 183.233 65.3183 183.136 66.3713 183.098C66.8735 183.098 67.3757 183.098 67.8833 183.098H68.6663C68.8113 183.118 68.9591 183.106 69.0983 183.06C69.5573 183.654 70.0163 184.253 70.4699 184.853C70.8299 185.328 71.1899 185.809 71.5499 186.295C71.9117 186.791 72.2357 187.331 72.6299 187.796C72.6893 187.801 72.7379 187.763 72.7217 187.726Z" fill="#263238"/>
<path d="M63.504 177.736C62.8993 177.654 62.2887 177.623 61.6788 177.644C61.0686 177.644 60.4638 177.644 59.8536 177.682C59.7996 177.682 59.7996 177.763 59.8536 177.757C60.4692 177.714 61.0848 177.703 61.7058 177.714C62.3268 177.725 62.8992 177.779 63.4986 177.763C63.5256 177.763 63.5256 177.736 63.504 177.736Z" fill="#263238"/>
<path d="M68.8608 179.107C68.931 178.524 69.0066 177.941 69.1308 177.368C69.1308 177.314 69.0606 177.293 69.0552 177.368C68.9688 177.941 68.8554 178.508 68.769 179.086C68.7258 179.372 68.688 179.658 68.6556 179.95C68.6025 180.216 68.579 180.488 68.5854 180.76C68.5854 180.772 68.5905 180.785 68.5996 180.794C68.6087 180.803 68.6211 180.808 68.634 180.808C68.6469 180.808 68.6592 180.803 68.6683 180.794C68.6775 180.785 68.6826 180.772 68.6826 180.76C68.7348 180.491 68.7655 180.218 68.7744 179.944C68.8014 179.663 68.8284 179.388 68.8608 179.107Z" fill="#263238"/>
<path d="M67.7376 172.649C67.5918 173.189 67.4406 173.794 67.338 174.371C67.284 174.663 67.2408 174.955 67.1976 175.252C67.1446 175.536 67.1264 175.826 67.1436 176.116C67.1436 176.116 67.1814 176.116 67.1868 176.116C67.2541 175.846 67.2992 175.572 67.3218 175.295C67.3596 175.009 67.4028 174.728 67.4514 174.447C67.554 173.853 67.662 173.264 67.8132 172.676C67.824 172.627 67.7538 172.6 67.7376 172.649Z" fill="#263238"/>
<path d="M45.5165 207.263C45.4193 206.183 45.3167 205.103 45.2033 204.023C44.9819 201.895 44.7173 199.773 44.4365 197.656C44.1557 195.539 43.8965 193.428 43.5401 191.322C43.4112 190.35 43.1925 189.392 42.8867 188.46C42.7745 188.056 42.5697 187.683 42.2885 187.372C42.0073 187.061 41.6574 186.82 41.2667 186.667C39.2579 185.971 37.9079 188.055 37.0925 189.529C37.0925 189.572 37.1357 189.605 37.1627 189.567C37.6487 188.865 38.9879 186.91 40.5107 186.997C41.5367 187.061 42.3575 187.785 42.8489 190.345C44.0747 196.711 45.1817 209.633 45.3113 210.476C45.3761 210.924 45.6947 210.908 45.7001 210.427C45.7325 209.374 45.6083 208.316 45.5165 207.263Z" fill="#263238"/>
<path d="M37.665 188.741C37.665 188.741 39.42 182.52 35.5374 185.641C29.0574 190.798 28.8522 202.019 28.8522 202.019C28.8522 202.019 40.3326 195.35 41.7582 190.955C43.8858 184.405 37.665 188.741 37.665 188.741Z" fill="#F8F8F8"/>
<path d="M39.8357 191.781C38.9339 191.965 38.0213 192.083 37.1357 192.218L35.8397 192.397C35.5535 192.44 35.2565 192.467 34.9649 192.499C35.8181 191.322 36.6821 190.15 37.5029 188.946C37.5353 188.903 37.4597 188.854 37.4219 188.892C36.7418 189.593 36.1018 190.333 35.5049 191.106L34.9973 189.664C34.8029 189.124 34.5923 188.557 34.4573 187.99C34.4573 187.942 34.3709 187.963 34.3817 187.99C34.5383 188.557 34.6517 189.135 34.8029 189.707C34.9541 190.28 35.1161 190.787 35.3105 191.327C34.8893 191.867 34.4843 192.434 34.0955 192.996C33.8957 192.456 33.6527 191.916 33.4799 191.327C33.4799 191.279 33.3881 191.327 33.4043 191.327C33.6095 191.959 33.7229 192.613 33.9173 193.244C33.6527 193.628 33.3773 194.017 33.1343 194.405C32.6753 195.118 32.2379 195.847 31.8059 196.565C31.7734 196.58 31.7465 196.605 31.729 196.636C31.7115 196.667 31.7044 196.703 31.7087 196.738C30.9797 197.996 30.2939 199.271 29.6135 200.551C29.6135 200.599 29.6567 200.637 29.6783 200.588C30.3587 199.319 31.1201 198.088 31.9085 196.873C32.0312 196.834 32.158 196.808 32.2865 196.798L32.6807 196.711C32.9777 196.646 33.2747 196.571 33.5663 196.501C34.1495 196.355 34.7273 196.214 35.3159 196.117C35.3645 196.117 35.3159 196.031 35.3159 196.042C34.6193 196.171 33.9227 196.252 33.2207 196.333C32.8913 196.371 32.5619 196.414 32.2325 196.468H32.1839C32.5943 195.842 33.0155 195.221 33.4367 194.605C33.8579 193.99 34.2845 193.401 34.7165 192.807C35.1107 192.748 35.5049 192.645 35.9045 192.569L37.2329 192.31C38.1239 192.132 39.0095 191.932 39.9005 191.77C39.9059 191.846 39.8843 191.77 39.8357 191.781Z" fill="#263238"/>
<path d="M32.94 192.391C32.8914 192.229 32.8374 192.067 32.7888 191.9C32.6816 191.559 32.5933 191.213 32.5242 190.863C32.5242 190.814 32.4378 190.836 32.4486 190.863C32.5242 191.214 32.6052 191.56 32.6862 191.911C32.7605 192.262 32.8616 192.606 32.9886 192.942C32.9969 192.955 33.0095 192.966 33.0244 192.971C33.0392 192.976 33.0555 192.977 33.0704 192.972C33.0854 192.967 33.0983 192.957 33.107 192.944C33.1156 192.93 33.1196 192.915 33.1182 192.899C33.0642 192.742 32.994 192.569 32.94 192.391Z" fill="#263238"/>
<path d="M41.04 190.35C40.5 190.426 39.96 190.463 39.4578 190.507C38.9556 190.55 38.3778 190.631 37.881 190.706V190.755C38.421 190.717 38.961 190.679 39.4632 190.609C39.9654 190.539 40.5108 190.463 41.04 190.426C41.04 190.42 41.04 190.339 41.04 190.35Z" fill="#263238"/>
<path d="M53.9622 199.417C53.7624 194.854 53.4708 190.301 53.0118 185.755C52.785 183.492 52.5312 181.229 52.2126 178.978C51.9268 176.763 51.4884 174.571 50.9004 172.417C50.5029 170.745 49.7679 169.172 48.7404 167.794C48.2291 167.125 47.5558 166.597 46.7839 166.259C46.0121 165.922 45.1671 165.787 44.3286 165.866C42.3306 166.115 40.7214 167.373 39.3336 168.739C37.773 170.273 36.342 171.947 34.9002 173.599C34.533 174.015 34.1712 174.431 33.8202 174.852C33.7878 174.89 33.8202 174.944 33.8796 174.906C35.289 173.286 36.7578 171.704 38.2968 170.197C39.7116 168.804 41.175 167.281 43.1568 166.703C44.0708 166.412 45.0492 166.39 45.9756 166.639C46.7115 166.872 47.374 167.292 47.898 167.859C48.9435 169.073 49.684 170.519 50.058 172.076C51.2892 176.272 51.7266 180.668 52.1802 184.999C52.6338 189.329 52.9578 193.811 53.1792 198.229C53.4006 202.646 53.5734 207.122 54 211.55C54.054 212.09 54.1242 212.63 54.1944 213.17C54.243 213.538 54.81 213.538 54.783 213.17C54.378 208.586 54.1674 204.007 53.9622 199.417Z" fill="#263238"/>
<path d="M39.0582 169.236C39.0582 169.236 41.6664 164.414 38.5884 162.864C35.5104 161.314 25.2018 172.8 22.194 189.637C22.194 189.637 38.8368 182.277 44.4906 174.938C50.1444 167.6 43.74 165.985 39.0582 169.236Z" fill="#F8F8F8"/>
<path d="M41.5098 173.156C39.636 173.156 37.773 173.016 35.8992 173.027L36.9792 171.823C37.5029 171.289 37.9917 170.723 38.4426 170.127C38.4426 170.084 38.4426 170.03 38.3778 170.062C37.8691 170.497 37.396 170.972 36.963 171.482C36.4932 171.979 36.0234 172.476 35.5644 172.978C34.8462 173.75 34.1442 174.539 33.4476 175.327C33.4476 175.252 33.4476 175.176 33.4476 175.1C33.4476 174.771 33.4476 174.447 33.4476 174.118V172.217C33.4476 170.926 33.4476 169.636 33.5502 168.35C33.5502 168.302 33.4746 168.307 33.4692 168.35C33.3828 169.641 33.2478 170.921 33.183 172.217C33.183 172.849 33.1398 173.486 33.129 174.118C33.129 174.447 33.129 174.776 33.129 175.1C33.129 175.279 33.129 175.468 33.129 175.64C33.021 175.765 32.9076 175.883 32.7942 176.008C31.3038 177.714 29.8836 179.48 28.5012 181.273C28.5012 181.175 28.5012 181.073 28.5012 180.976L28.4364 180.382C28.3878 179.955 28.3284 179.528 28.2636 179.102C28.1988 178.675 28.1394 178.297 28.0746 177.898C28.0098 177.498 27.8856 176.99 27.8532 176.537C27.8532 176.527 27.8492 176.517 27.8422 176.51C27.8351 176.503 27.8254 176.499 27.8154 176.499C27.8054 176.499 27.7958 176.503 27.7887 176.51C27.7816 176.517 27.7776 176.527 27.7776 176.537C27.8567 176.991 27.909 177.449 27.9342 177.908L28.0476 179.145C28.0854 179.555 28.1232 179.966 28.1664 180.382C28.1664 180.576 28.2042 180.776 28.2258 180.97L28.2582 181.267C28.2675 181.351 28.2951 181.432 28.3392 181.505L27.6264 182.434C26.6868 183.681 25.758 184.945 24.8292 186.214C24.8292 186.251 24.8292 186.305 24.8886 186.268C25.7634 185.123 26.6652 184 27.5886 182.887C28.2744 182.887 28.971 182.887 29.6568 182.855C30.3426 182.822 31.0986 182.855 31.8168 182.855C31.8268 182.855 31.8365 182.851 31.8436 182.844C31.8506 182.837 31.8546 182.827 31.8546 182.817C31.8546 182.807 31.8506 182.797 31.8436 182.79C31.8365 182.783 31.8268 182.779 31.8168 182.779H29.6568C28.998 182.779 28.323 182.747 27.6696 182.779C28.476 181.804 29.286 180.83 30.0996 179.858C30.3966 179.507 30.699 179.156 30.996 178.778C31.2715 178.816 31.5503 178.825 31.8276 178.805H32.8158C33.426 178.805 34.0416 178.805 34.6572 178.778C35.9262 178.778 37.2006 178.718 38.4696 178.713C38.4796 178.713 38.4893 178.709 38.4964 178.702C38.5034 178.695 38.5074 178.685 38.5074 178.675C38.5074 178.665 38.5034 178.656 38.4964 178.648C38.4893 178.641 38.4796 178.637 38.4696 178.637C37.1952 178.637 35.9262 178.567 34.6518 178.535C34.0362 178.535 33.4206 178.497 32.805 178.492H31.8222C31.6332 178.492 31.4442 178.492 31.2822 178.492C31.9788 177.665 32.6754 176.834 33.3774 176.008C33.3928 175.996 33.4056 175.981 33.4152 175.964C34.0956 175.158 34.7796 174.355 35.4672 173.556L35.7534 173.232C37.692 173.291 39.6306 173.162 41.5692 173.2C41.5724 173.192 41.5729 173.183 41.5706 173.175C41.5683 173.167 41.5633 173.16 41.5565 173.155C41.5496 173.15 41.5413 173.147 41.5329 173.147C41.5244 173.148 41.5163 173.151 41.5098 173.156Z" fill="#263238"/>
<path d="M40.5486 176.461H40.095C40.0518 176.461 40.0572 176.531 40.095 176.531H40.5486C40.6026 176.542 40.6026 176.461 40.5486 176.461Z" fill="#263238"/>
<path d="M39.5442 176.467C38.9448 176.467 38.3454 176.467 37.746 176.429L36.8442 176.402C36.5681 176.367 36.2887 176.367 36.0126 176.402C36.0054 176.402 35.9986 176.405 35.9935 176.41C35.9884 176.415 35.9856 176.422 35.9856 176.429C35.9856 176.436 35.9884 176.443 35.9935 176.448C35.9986 176.453 36.0054 176.456 36.0126 176.456C36.2876 176.514 36.5692 176.533 36.8496 176.515H37.746H39.5442C39.5491 176.508 39.5517 176.5 39.5517 176.491C39.5517 176.482 39.5491 176.474 39.5442 176.467Z" fill="#263238"/>
<path d="M34.3116 182.083C33.0936 181.884 31.8627 181.774 30.6288 181.753V181.78C31.8546 181.899 33.0804 181.964 34.29 182.158C34.3 182.161 34.3108 182.16 34.3199 182.155C34.329 182.15 34.3357 182.141 34.3386 182.131C34.3414 182.121 34.3402 182.11 34.3351 182.101C34.3301 182.092 34.3216 182.085 34.3116 182.083Z" fill="#263238"/>
<path d="M29.3058 176.731C29.3058 176.623 29.3058 176.515 29.268 176.407C29.241 176.17 29.2032 175.927 29.1654 175.689C29.0898 175.23 29.0088 174.776 28.9224 174.323C28.9224 174.28 28.8414 174.29 28.8468 174.323C28.9062 174.793 28.9548 175.262 29.0034 175.738C29.0034 175.97 29.0412 176.202 29.0628 176.429C29.0536 176.663 29.0865 176.897 29.16 177.12C29.1924 177.19 29.3004 177.158 29.322 177.093C29.3433 176.973 29.3377 176.849 29.3058 176.731Z" fill="#263238"/>
<path d="M53.8002 163.042C53.2062 161.93 52.4448 160.466 50.9598 160.558C49.734 160.639 49.1778 161.892 48.9186 162.923C48.1032 166.126 48.06 169.506 47.8926 172.8C47.5578 179.739 47.2554 186.683 47.2122 193.628C47.2122 195.55 47.2122 197.478 47.2122 199.4C47.2122 201.323 47.2122 203.342 47.3472 205.303C47.3536 205.336 47.3715 205.366 47.3976 205.387C47.4237 205.409 47.4564 205.42 47.4903 205.42C47.5241 205.42 47.5568 205.409 47.583 205.387C47.6091 205.366 47.6269 205.336 47.6334 205.303C47.6334 203.623 47.5848 201.944 47.5794 200.264C47.574 198.585 47.5794 196.987 47.6118 195.345C47.6658 192.029 47.754 188.712 47.8764 185.393C48.0006 182.093 48.1464 178.799 48.2868 175.5L48.4974 170.559C48.573 168.939 48.6378 167.362 48.8214 165.775C48.924 164.884 49.059 163.998 49.2426 163.118C49.336 162.468 49.6006 161.855 50.0094 161.341C50.293 161.064 50.6655 160.897 51.0607 160.868C51.456 160.84 51.8487 160.952 52.1694 161.185C52.8542 161.662 53.3957 162.317 53.7354 163.08C53.757 163.123 53.8218 163.08 53.8002 163.042Z" fill="#263238"/>
<path d="M53.4006 162.54C53.4006 162.54 52.1748 158.22 54.8802 160.38C59.3784 163.971 59.535 171.79 59.535 171.79C59.535 171.79 51.5376 167.146 50.544 164.079C49.0644 159.489 53.4006 162.54 53.4006 162.54Z" fill="#F8F8F8"/>
<path d="M57.8556 168.556L57.6288 168.205C57.6369 168.082 57.6369 167.96 57.6288 167.837C57.6288 167.648 57.6288 167.465 57.6288 167.297C57.6288 166.93 57.6288 166.568 57.6666 166.217C57.6666 166.169 57.5964 166.169 57.591 166.217C57.591 166.579 57.5586 166.936 57.5478 167.297V167.837C57.5478 167.902 57.5478 167.983 57.5478 168.064C57.2346 167.578 56.9106 167.098 56.5758 166.622C56.4786 166.482 56.3814 166.347 56.2788 166.212C56.241 165.743 56.241 165.272 56.2788 164.803C56.2788 164.3 56.2788 163.798 56.2788 163.301C56.2788 163.247 56.2032 163.253 56.2032 163.301C56.2032 163.841 56.1654 164.344 56.1384 164.867C56.106 165.237 56.0952 165.609 56.106 165.98C55.3338 164.932 54.513 163.917 53.6868 162.913C53.6598 162.88 53.6004 162.913 53.6274 162.961C54.1404 163.609 54.6318 164.279 55.1124 164.954C54.1728 164.732 53.217 164.608 52.2612 164.468C52.2126 164.468 52.191 164.538 52.2612 164.543C53.2764 164.695 54.27 164.948 55.269 165.17C55.647 165.71 56.0304 166.25 56.403 166.79C56.5596 167.011 56.7054 167.238 56.8566 167.459H56.8134L56.5056 167.416C56.2842 167.389 56.0628 167.373 55.8414 167.357C55.377 167.319 54.918 167.297 54.4536 167.27C54.4436 167.27 54.434 167.274 54.4269 167.281C54.4198 167.289 54.4158 167.298 54.4158 167.308C54.4158 167.318 54.4198 167.328 54.4269 167.335C54.434 167.342 54.4436 167.346 54.4536 167.346C54.9126 167.346 55.3608 167.395 55.8144 167.443C56.052 167.443 56.2896 167.503 56.5326 167.53L56.8404 167.567H56.9322L57.7044 168.701C58.1526 169.366 58.5576 170.084 59.0382 170.726C59.0706 170.764 59.1246 170.726 59.103 170.689C58.7273 169.955 58.3108 169.243 57.8556 168.556Z" fill="#263238"/>
<path d="M55.863 163.679C55.863 163.512 55.863 163.345 55.863 163.177C55.8549 162.817 55.8693 162.456 55.9062 162.097C55.9062 162.087 55.9022 162.078 55.8951 162.07C55.888 162.063 55.8784 162.059 55.8684 162.059C55.8583 162.059 55.8487 162.063 55.8416 162.07C55.8345 162.078 55.8306 162.087 55.8306 162.097C55.8306 162.443 55.7928 162.794 55.7766 163.145C55.7766 163.318 55.7766 163.496 55.7766 163.685C55.7766 163.766 55.7766 163.847 55.7766 163.928C55.763 164.01 55.763 164.094 55.7766 164.176C55.7766 164.185 55.78 164.193 55.786 164.199C55.7921 164.205 55.8004 164.209 55.809 164.209C55.8175 164.209 55.8258 164.205 55.8319 164.199C55.8379 164.193 55.8414 164.185 55.8414 164.176C55.8548 164.099 55.8548 164.021 55.8414 163.944L55.863 163.679Z" fill="#263238"/>
<path d="M54.8748 165.472C54.5761 165.426 54.275 165.395 53.973 165.38C53.6436 165.348 53.3142 165.321 52.9848 165.278C52.9308 165.278 52.92 165.353 52.9848 165.353C53.6166 165.397 54.2484 165.51 54.8802 165.532C54.8858 165.529 54.8904 165.524 54.8934 165.518C54.8965 165.513 54.8978 165.506 54.8972 165.5C54.8966 165.494 54.8942 165.488 54.8902 165.483C54.8862 165.478 54.8809 165.474 54.8748 165.472Z" fill="#263238"/>
<path d="M57.3858 165.494C57.3965 165.549 57.3965 165.606 57.3858 165.661V165.78C57.3858 165.883 57.3858 165.98 57.3858 166.082V166.385C57.3695 166.472 57.3695 166.562 57.3858 166.649C57.3858 166.649 57.3858 166.649 57.4182 166.649C57.4287 166.607 57.4287 166.562 57.4182 166.52V166.385C57.4182 166.282 57.4182 166.18 57.4182 166.082V165.64C57.4182 165.596 57.4182 165.51 57.4182 165.472C57.4182 165.434 57.3372 165.424 57.3858 165.494Z" fill="#263238"/>
<path d="M53.9999 186.073C52.3151 184.815 50.8031 183.001 48.5405 182.909C46.6775 182.839 45.3653 184.243 44.6201 185.809C44.2447 186.641 43.9376 187.502 43.7021 188.384C43.3673 189.565 43.0505 190.753 42.7517 191.948C42.1577 194.303 41.6537 196.668 41.2397 199.044C41.0129 200.372 40.8023 201.701 40.6349 203.04C40.4229 204.395 40.2912 205.762 40.2407 207.133C40.2446 207.183 40.2658 207.23 40.3005 207.266C40.3353 207.302 40.3815 207.325 40.4313 207.331C40.4811 207.337 40.5313 207.325 40.5734 207.298C40.6154 207.271 40.6468 207.23 40.6619 207.182C40.8887 206.064 40.9805 204.908 41.1479 203.78C41.3153 202.651 41.4827 201.506 41.6879 200.372C42.0695 198.104 42.5159 195.851 43.0271 193.612C43.5077 191.495 43.9829 189.346 44.6471 187.283C45.1331 185.809 45.9215 184.081 47.5145 183.551C49.9445 182.741 52.1477 184.799 53.9243 186.133C53.9999 186.16 54.0269 186.106 53.9999 186.073Z" fill="#263238"/>
<path d="M52.245 184.869C52.245 184.869 50.6952 180.441 52.9362 179.572C56.3004 178.27 65.097 188.179 63.3744 203.332C63.3744 203.332 56.5758 199.589 51.5592 195.377C46.5426 191.165 45.2574 185.657 47.466 184.243C49.6746 182.828 52.245 184.869 52.245 184.869Z" fill="#F8F8F8"/>
<path d="M62.3591 200.102C62.1231 199.574 61.8488 199.063 61.5383 198.574C61.2521 198.034 60.9605 197.537 60.6635 197.024C60.0803 196.025 59.4971 195.021 58.8977 194.033L58.6061 193.552C58.6061 193.493 58.6061 193.433 58.6439 193.374L58.7411 192.937C58.8167 192.607 58.8761 192.272 58.9355 191.943C59.0597 191.295 59.1677 190.636 59.3459 189.999C59.3459 189.989 59.342 189.979 59.3349 189.972C59.3278 189.965 59.3182 189.961 59.3081 189.961C59.2981 189.961 59.2885 189.965 59.2814 189.972C59.2743 189.979 59.2703 189.989 59.2703 189.999C59.1299 190.647 58.9247 191.29 58.7303 191.921C58.6331 192.235 58.5359 192.548 58.4495 192.866C58.4495 192.974 58.3955 193.082 58.3631 193.19C57.6449 192.002 56.9105 190.825 56.1167 189.686C56.1676 189.529 56.1931 189.365 56.1923 189.2L56.2733 188.536C56.3327 188.033 56.3867 187.537 56.4623 187.04C56.5911 186.061 56.7713 185.089 57.0023 184.129C57.0023 184.081 56.9429 184.07 56.9267 184.129C56.6891 185.085 56.4245 186.041 56.2409 187.007C56.1545 187.483 56.0681 187.963 56.0033 188.438C55.9709 188.681 55.9493 188.919 55.9223 189.162C55.9223 189.232 55.9223 189.308 55.9223 189.378C55.6793 189.032 55.4363 188.692 55.1771 188.357C54.4049 187.337 53.6003 186.338 52.7849 185.344C52.7849 185.306 52.6931 185.344 52.7255 185.387C54.1155 187.166 55.3907 189.031 56.5433 190.971C56.7701 191.327 56.9861 191.684 57.2075 192.051L56.9861 192.024C56.7053 191.992 56.4137 191.97 56.1329 191.943L54.4157 191.797C53.2709 191.705 52.1207 191.635 50.9813 191.511C50.9327 191.511 50.9165 191.581 50.9813 191.587C52.1423 191.722 53.2925 191.905 54.4427 192.073C54.9827 192.154 55.5767 192.229 56.1491 192.299C56.5794 192.386 57.017 192.432 57.4559 192.434C57.9095 193.154 58.3595 193.885 58.8059 194.627C58.7053 194.619 58.6042 194.619 58.5035 194.627H56.8835C56.1437 194.627 55.4093 194.627 54.6695 194.627C54.6209 194.627 54.6317 194.702 54.6695 194.702C55.4147 194.702 56.1599 194.751 56.9051 194.789C57.2615 194.789 57.6125 194.827 57.9851 194.854L58.5251 194.891C58.6782 194.924 58.8364 194.924 58.9895 194.891C59.3729 195.512 59.7617 196.133 60.1397 196.754C60.5177 197.375 60.8471 197.899 61.2197 198.466C61.5615 199.072 61.9477 199.651 62.3753 200.2C62.3817 200.199 62.3878 200.196 62.3933 200.193C62.3988 200.189 62.4036 200.185 62.4073 200.18C62.4111 200.174 62.4138 200.168 62.4152 200.162C62.4167 200.156 62.4169 200.149 62.4158 200.143C62.4148 200.137 62.4125 200.13 62.409 200.125C62.4056 200.119 62.4011 200.115 62.3959 200.111C62.3906 200.107 62.3847 200.104 62.3784 200.103C62.3721 200.102 62.3655 200.101 62.3591 200.102Z" fill="#263238"/>
<path d="M59.1191 187.834C59.0506 188.322 58.9495 188.806 58.8167 189.281C58.6871 189.772 58.5467 190.258 58.3847 190.739C58.3826 190.745 58.3817 190.751 58.382 190.758C58.3824 190.764 58.384 190.77 58.3867 190.776C58.3895 190.782 58.3933 190.787 58.3981 190.791C58.4029 190.795 58.4084 190.799 58.4144 190.801C58.4205 190.803 58.4268 190.804 58.4332 190.804C58.4396 190.803 58.4459 190.802 58.4516 190.799C58.4574 190.796 58.4626 190.792 58.4668 190.788C58.4711 190.783 58.4744 190.777 58.4765 190.771C58.6277 190.291 58.7627 189.81 58.8815 189.319C59.0003 188.827 59.0759 188.336 59.1947 187.85C59.2055 187.801 59.1245 187.785 59.1191 187.834Z" fill="#263238"/>
<path d="M54.1242 190.798C54.0212 190.712 53.8914 190.664 53.757 190.663L53.1144 190.577L51.921 190.431C51.0894 190.334 50.2632 190.253 49.4316 190.15C49.383 190.15 49.3722 190.22 49.4316 190.226C50.2146 190.318 50.9868 190.436 51.7698 190.539L52.9146 190.69L53.4546 190.75C53.668 190.75 53.8798 190.786 54.081 190.858C54.1242 190.879 54.1512 190.825 54.1242 190.798Z" fill="#263238"/>
<path d="M59.1084 197.478C58.7142 197.44 58.32 197.429 57.9312 197.419H57.3372H57.051C56.9288 197.43 56.806 197.43 56.6838 197.419C56.6244 197.419 56.619 197.505 56.6838 197.494C56.7988 197.483 56.9145 197.483 57.0294 197.494H57.3372L57.9312 197.532C58.3254 197.532 58.7196 197.581 59.1084 197.581C59.1516 197.559 59.157 197.478 59.1084 197.478Z" fill="#263238"/>
<path d="M61.5005 195.777C61.5509 195.554 61.5941 195.332 61.6301 195.113L61.8731 193.795C61.8731 193.785 61.8691 193.776 61.862 193.768C61.855 193.761 61.8453 193.757 61.8353 193.757C61.8253 193.757 61.8157 193.761 61.8086 193.768C61.8015 193.776 61.7975 193.785 61.7975 193.795L61.5059 195.075C61.4573 195.286 61.4141 195.502 61.3655 195.712C61.3655 195.815 61.3277 195.912 61.3061 196.009C61.2741 196.11 61.2631 196.217 61.2737 196.322C61.2737 196.36 61.3331 196.387 61.3547 196.322C61.437 196.151 61.4865 195.966 61.5005 195.777Z" fill="#263238"/>
<path d="M60.5988 208.861L60.2208 215.136L59.103 233.658H36.2016L35.0838 215.136L34.7058 208.861H60.5988Z" fill="#455A64"/>
<path d="M60.5988 208.861L60.2208 215.136H35.0838L34.7058 208.861H60.5988Z" fill="#263238"/>
<path d="M62.3538 204.422H32.9562V210.703H62.3538V204.422Z" fill="#455A64"/>
<path d="M131.555 202.813C131.555 202.813 128.396 226.06 128.396 226.076C128.336 230.526 128.207 234.425 127.953 236.434C127.956 236.444 127.956 236.455 127.953 236.466C127.948 236.942 127.83 237.411 127.607 237.832L127.58 237.865C126.247 238.739 90.6984 239.323 89.451 238.945C88.2036 238.567 89.2404 234.965 90.6012 233.842C91.962 232.718 105.478 226.406 105.478 226.406L108.859 203.186L131.555 202.813Z" fill="#FFE4BF"/>
<path d="M128.347 228.96C128.277 232.2 128.153 234.9 127.953 236.455C127.956 236.466 127.956 236.477 127.953 236.488C127.948 236.964 127.83 237.432 127.607 237.854C127.607 237.854 127.607 237.854 127.607 237.881C126.268 238.761 90.72 239.339 89.4726 238.961C88.2252 238.583 89.262 234.981 90.6228 233.858C91.2762 233.318 94.7106 231.601 98.1126 229.948C97.0326 230.796 95.9526 231.838 96.444 232.259C97.2918 232.961 118.849 232.2 128.347 228.96Z" fill="#263238"/>
<path d="M100.089 228.96C100.089 228.96 106.38 226.098 117.169 231.277L100.089 228.96Z" fill="#263238"/>
<path d="M136.868 218.835L105.889 218.338L121.478 102.098H142.479L136.868 218.835Z" fill="#263238"/>
<path d="M142.479 102.098L138.499 184.901L128.056 102.098H142.479Z" fill="#37474F"/>
<path d="M135.378 213.451C134.444 213.349 133.488 213.354 132.548 213.316C131.609 213.278 130.745 213.268 129.848 213.251C127.98 213.219 126.117 213.187 124.249 213.165C120.56 213.133 116.872 213.106 113.184 213.116C111.089 213.116 109.004 213.187 106.909 213.278C106.898 213.282 106.889 213.289 106.882 213.298C106.876 213.307 106.872 213.318 106.872 213.33C106.872 213.341 106.876 213.352 106.882 213.361C106.889 213.371 106.898 213.377 106.909 213.381C110.619 213.602 114.323 213.662 118.039 213.71C121.754 213.759 125.415 213.77 129.103 213.764C130.14 213.764 131.171 213.764 132.208 213.764C133.245 213.764 134.336 213.764 135.378 213.667C135.407 213.667 135.434 213.656 135.454 213.636C135.475 213.615 135.486 213.588 135.486 213.559C135.486 213.531 135.475 213.503 135.454 213.483C135.434 213.463 135.407 213.451 135.378 213.451Z" fill="#455A64"/>
<path d="M125.442 108.157C123.617 121.36 121.927 134.573 120.134 147.782C118.341 160.99 116.451 174.064 114.539 187.202C113.459 194.573 112.342 201.933 111.353 209.342C111.353 209.455 111.51 209.498 111.532 209.385C113.945 196.279 115.852 183.076 117.769 169.889C119.686 156.703 121.441 143.602 123.066 130.432C123.979 123.034 124.864 115.63 125.615 108.216C125.626 108.081 125.458 108.059 125.442 108.157Z" fill="#455A64"/>
<path d="M142.506 203.153C142.506 203.153 145.487 225.32 145.487 225.337C145.514 229.781 145.616 233.68 145.859 235.694C145.857 235.704 145.857 235.715 145.859 235.726C145.867 236.203 145.981 236.671 146.194 237.098C146.194 237.098 146.194 237.098 146.221 237.125C147.55 238.01 179.291 238.82 180.544 238.432C181.796 238.043 180.781 234.452 179.426 233.318C178.07 232.184 168.399 225.79 168.399 225.79L164.668 202.57L142.506 203.153Z" fill="#FFE4BF"/>
<path d="M180.549 238.432C179.302 238.82 147.56 238.01 146.227 237.125C146.227 237.125 146.227 237.125 146.227 237.092C146.006 236.669 145.89 236.198 145.886 235.721C145.884 235.71 145.884 235.699 145.886 235.688C145.628 233.358 145.516 231.013 145.552 228.668C150.736 231.957 164.16 233.42 168.426 232.486C172.206 231.655 171.374 228.609 170.586 227.237C173.513 229.187 178.508 232.54 179.464 233.334C180.787 234.446 181.802 238.043 180.549 238.432Z" fill="#263238"/>
<path d="M170.554 227.221C170.554 227.221 159.872 225.482 152.566 231.255L170.554 227.221Z" fill="#263238"/>
<path d="M123.611 102.06C123.703 102.492 125.172 109.307 126.695 115.16C127.802 119.437 128.941 123.196 129.595 123.584C130.334 124.022 133.942 125.62 135.151 126.122L139.86 218.619L171.914 217.901L155.174 117.05L152.356 102.06H123.611Z" fill="#263238"/>
<path d="M127.683 122.666C130.257 123.603 132.745 124.761 135.119 126.128C135.137 126.139 135.151 126.156 135.157 126.176C135.163 126.196 135.162 126.218 135.153 126.237C135.145 126.257 135.129 126.272 135.11 126.281C135.091 126.289 135.069 126.291 135.049 126.284C132.543 125.204 129.989 124.178 127.548 122.963C127.509 122.946 127.478 122.913 127.463 122.872C127.448 122.832 127.449 122.787 127.467 122.747C127.485 122.708 127.518 122.677 127.558 122.662C127.599 122.647 127.644 122.649 127.683 122.666Z" fill="#455A64"/>
<path d="M126.927 105.511C126.927 105.424 127.084 105.403 127.084 105.511C127.084 108.486 127.256 111.105 127.505 113.881C127.624 115.171 128.66 122.305 130.896 121.786C131.274 121.694 131.436 121.327 131.522 120.766C131.514 120.027 131.414 119.292 131.225 118.579C130.977 117.083 130.777 115.587 130.648 114.08C130.389 111.271 130.42 108.443 130.739 105.64C130.744 105.624 130.753 105.61 130.766 105.6C130.78 105.59 130.796 105.585 130.812 105.585C130.829 105.585 130.845 105.59 130.858 105.6C130.871 105.61 130.881 105.624 130.885 105.64C130.817 109.533 131.045 113.425 131.566 117.283C131.846 119.14 132.781 121.932 130.842 122.218C128.903 122.504 127.602 117.833 127.343 116.554C126.729 112.906 126.589 109.194 126.927 105.511Z" fill="#455A64"/>
<path d="M130.837 121.959C131.039 122.44 131.206 122.934 131.339 123.439C131.483 123.827 131.555 124.239 131.549 124.654C131.546 124.67 131.538 124.686 131.526 124.698C131.514 124.71 131.499 124.719 131.482 124.722C131.465 124.726 131.448 124.724 131.432 124.718C131.416 124.711 131.402 124.7 131.393 124.686C131.155 124.321 130.973 123.922 130.853 123.503C130.685 123.044 130.502 122.591 130.345 122.132C130.322 122.067 130.326 121.995 130.356 121.933C130.386 121.87 130.439 121.823 130.504 121.8C130.57 121.777 130.641 121.781 130.704 121.811C130.766 121.84 130.814 121.894 130.837 121.959Z" fill="#455A64"/>
<path d="M170.1 213.484C169.166 213.408 168.205 213.435 167.265 213.424C166.325 213.413 165.467 213.424 164.565 213.424C162.702 213.424 160.834 213.467 158.971 213.5C155.282 213.57 151.594 213.651 147.906 213.764C145.811 213.829 143.726 213.953 141.642 214.105C141.631 214.108 141.622 214.115 141.615 214.124C141.608 214.133 141.605 214.145 141.605 214.156C141.605 214.167 141.608 214.178 141.615 214.188C141.622 214.197 141.631 214.204 141.642 214.207C145.357 214.326 149.062 214.277 152.777 214.207C156.492 214.137 160.153 214.056 163.836 213.948L166.941 213.84C167.989 213.797 169.069 213.781 170.105 213.651C170.12 213.642 170.131 213.629 170.139 213.614C170.147 213.599 170.151 213.583 170.151 213.566C170.15 213.549 170.145 213.532 170.136 213.518C170.127 213.504 170.115 213.492 170.1 213.484Z" fill="#455A64"/>
<path d="M156.06 201.037C155.785 198.212 155.482 195.388 155.191 192.564C154.607 186.97 154.006 181.379 153.387 175.792C152.159 164.614 150.899 153.436 149.607 142.258C148.889 135.988 148.295 129.697 147.479 123.439C147.479 123.385 147.382 123.385 147.388 123.439C147.874 129.098 148.565 134.735 149.137 140.384C149.71 146.032 150.26 151.567 150.844 157.156C152.003 168.341 153.194 179.521 154.418 190.696C154.764 193.833 155.11 196.97 155.498 200.108C155.887 203.245 156.303 206.377 156.697 209.515C156.697 209.59 156.827 209.59 156.816 209.515C156.546 206.685 156.335 203.861 156.06 201.037Z" fill="#455A64"/>
<path d="M121.23 114.847L126.7 115.198L142.646 116.235L155.185 117.05L152.356 102.06H123.611H121.451L121.23 114.847Z" fill="#263238"/>
<path d="M128.887 43.5996C123.649 48.087 125.107 54.6372 122.92 58.1796C121.581 60.3396 117.229 62.6454 116.359 65.1456C114.939 69.2604 118.422 70.7346 117.644 72.9702C116.564 76.1346 112.304 75.8916 111.537 81.0702C110.77 86.2488 116.473 91.7568 130 93.2526C143.527 94.7484 150.952 89.7912 151.438 85.3956C151.924 81 147.425 79.542 147.118 76.2588C146.923 74.1636 149.699 72.7002 149.818 68.8446C149.936 64.989 146.2 63.7308 145.66 60.453C145.12 57.1752 146.858 49.2102 142.042 45.144C137.225 41.0778 131.468 41.3856 128.887 43.5996Z" fill="#263238"/>
<path d="M129.492 43.74C128.027 44.7765 126.835 46.151 126.014 47.7468C125.167 49.4391 124.518 51.2241 124.081 53.0658C123.856 54.1628 123.504 55.2301 123.034 56.2464C122.566 57.095 121.952 57.8538 121.219 58.4874C119.756 59.8104 118.006 60.8202 116.694 62.3052C115.382 63.7902 114.48 65.5992 114.977 67.5162C115.247 68.5584 115.938 69.4116 116.365 70.3836C116.791 71.3556 116.905 72.4572 116.143 73.224C115.463 73.8774 114.485 74.1798 113.719 74.7144C112.96 75.2423 112.293 75.8897 111.742 76.6314C111.185 77.3643 110.786 78.205 110.571 79.1003C110.357 79.9955 110.331 80.9257 110.495 81.8316C111.294 86.0382 115.241 88.4304 118.886 89.9316C119.394 90.1422 119.902 90.3474 120.415 90.5472C120.496 90.5796 120.56 90.4662 120.479 90.4338C116.824 88.8138 112.579 86.8752 111.175 82.782C110.85 81.8894 110.735 80.9338 110.84 79.9896C110.945 79.0454 111.267 78.1382 111.78 77.3388C112.297 76.5516 112.952 75.8638 113.713 75.3084C114.448 74.7684 115.301 74.4282 116.046 73.9152C116.418 73.6795 116.72 73.3493 116.922 72.9584C117.124 72.5675 117.219 72.1299 117.196 71.6904C117.081 70.7232 116.737 69.7975 116.192 68.9904C115.623 68.1567 115.322 67.1698 115.328 66.1608C115.438 65.1798 115.811 64.2469 116.408 63.4608C117.547 61.8408 119.232 60.7932 120.728 59.5728C122.276 58.4385 123.429 56.846 124.022 55.0206C124.303 54.054 124.475 53.0604 124.718 52.0884C124.936 51.1742 125.205 50.2728 125.523 49.3884C126.12 47.6264 127.097 46.0171 128.385 44.6742C128.723 44.3306 129.096 44.023 129.497 43.7562C129.6 43.74 129.535 43.686 129.492 43.74Z" fill="#263238"/>
<path d="M152.037 82.1772C151.872 81.4619 151.553 80.7911 151.103 80.2116C150.633 79.6176 150.066 79.1316 149.542 78.5916C149.01 78.0965 148.626 77.4625 148.435 76.761C148.34 75.9038 148.553 75.0407 149.035 74.3256C149.492 73.5699 149.896 72.7832 150.244 71.9712C150.702 70.7321 150.863 69.4033 150.716 68.0908C150.569 66.7782 150.117 65.5182 149.396 64.4112C148.937 63.6552 148.419 62.937 147.949 62.1864C147.435 61.3686 147.032 60.4861 146.75 59.562C146.14 57.5262 146.011 55.377 145.514 53.3142C144.989 51.2008 144.253 49.1456 143.316 47.1798C143.316 47.1312 143.219 47.1798 143.246 47.223C144.078 48.9974 144.72 50.8544 145.163 52.7634C145.595 54.5724 145.762 56.4192 146.081 58.2444C146.222 59.1432 146.452 60.0259 146.767 60.8796C147.088 61.6677 147.48 62.4251 147.938 63.1422C148.856 64.6326 149.796 66.1014 150.05 67.8726C150.302 69.6087 149.998 71.38 149.18 72.9324C148.468 74.277 147.474 75.762 148.1 77.3334C148.64 78.6672 149.893 79.4934 150.741 80.5734C151.185 81.182 151.496 81.8775 151.654 82.6144C151.811 83.3514 151.811 84.1132 151.654 84.8502C150.925 88.6302 147.134 90.5148 143.581 90.7038C143.558 90.7038 143.536 90.7129 143.52 90.7291C143.503 90.7453 143.494 90.7673 143.494 90.7902C143.494 90.8131 143.503 90.8351 143.52 90.8513C143.536 90.8675 143.558 90.8766 143.581 90.8766C146.669 90.8388 150.034 89.4834 151.481 86.589C152.175 85.2281 152.371 83.6677 152.037 82.1772Z" fill="#263238"/>
<path d="M131.917 70.5672C130.955 74.4984 119.534 111.348 117.272 111.861C110.614 113.362 102.611 114.464 102.73 108.999C102.919 100.424 119.038 77.8518 126.76 70.3512C131.841 65.4102 132.867 66.6846 131.917 70.5672Z" fill="#AD6359"/>
<path d="M131.917 70.5672C130.955 74.4984 119.534 111.348 117.272 111.861C110.614 113.362 102.611 114.464 102.73 108.999C102.919 100.424 119.038 77.8518 126.76 70.3512C131.841 65.4102 132.867 66.6846 131.917 70.5672Z" fill="#AD6359"/>
<path d="M102.686 110.965C99.9216 101.245 123.287 72.6732 127.834 69.0336C132.381 65.394 132.97 66.5334 132.046 71.1288C131.123 75.7242 120.074 110.511 117.72 111.78C115.366 113.049 103.939 115.371 102.686 110.965Z" fill="#EBEBEB"/>
<path d="M121.781 92.6154L119.216 110.263C119.216 110.263 147.976 110.689 155.115 110.187C155.115 110.187 149.294 77.193 141.615 68.8608C137.776 64.692 133.267 64.9998 130.394 67.9158C129.67 68.6556 120.992 80.1198 120.08 84.4992C119.281 88.3602 121.781 92.6154 121.781 92.6154Z" fill="#F8F8F8"/>
<path d="M138.434 66.42C138.434 66.42 135.086 158.414 136.863 162.783C138.64 167.152 165.375 171.488 165.375 171.488C165.375 171.488 157.529 105.64 150.412 85.6548C143.813 67.122 138.434 66.42 138.434 66.42Z" fill="#EBEBEB"/>
<path d="M156.298 122.98C153.87 123.315 151.425 123.506 148.975 123.552C145.552 123.552 142.155 123.217 141.172 123.206C141.086 123.206 141.043 123.493 141.102 123.498C143.696 123.81 146.304 123.991 148.916 124.038C151.307 124.021 153.692 123.795 156.044 123.363C156.044 124.087 156.044 124.654 156.044 125.383C153.63 125.847 148.975 126.652 141.464 125.685C141.437 125.383 141.464 123.768 141.415 123.325C141.415 123.26 141.124 123.244 141.113 123.325C141.053 123.763 140.875 127.645 140.87 128.434C140.87 130.378 140.989 135.864 141.469 136.928C142.549 139.336 147.253 139.342 148.554 139.352C149.855 139.363 154.035 139.493 155.601 137.959C156.438 137.144 156.616 132.694 156.492 128.779C156.411 126.9 156.406 123.017 156.298 122.98ZM148.9 138.899C144.752 138.899 142.96 138.035 142.312 137.165C141.566 136.161 141.502 134.401 141.448 132.462C141.404 130.939 141.448 126.171 141.448 126.074C143.861 126.56 150.239 127.224 156.028 125.879C156.028 128.137 156.028 129.946 156.028 132.208C156.028 133.828 155.925 136.593 155.093 137.549C154.44 138.348 151.897 138.893 148.9 138.899Z" fill="#A6A6A6"/>
<path d="M120.803 163.188C119.324 166.687 110.479 169.063 110.479 169.063L121.624 92.2968C120.214 89.9859 119.663 87.2516 120.069 84.5748C120.82 80.2548 129.832 67.7754 131.29 67.1328C129.786 73.5773 128.741 80.1206 128.164 86.7132C125.663 113.697 122.423 159.37 120.803 163.188Z" fill="#EBEBEB"/>
<path d="M122.909 78.7428C123.714 77.463 124.529 76.194 125.329 74.9088C125.329 74.871 125.291 74.8278 125.264 74.8656C124.459 75.9456 123.676 76.9878 122.899 78.0624C123.158 77.49 123.406 76.9122 123.638 76.3236C123.638 76.2588 123.574 76.1994 123.541 76.2696C123.185 77.0256 122.861 77.7924 122.542 78.5646C121.847 79.5255 121.233 80.5424 120.706 81.6048C119.549 83.8085 119.203 86.3486 119.729 88.7814C119.894 89.4598 120.135 90.1173 120.447 90.7416C120.663 91.1682 121.354 92.0916 121.349 92.1186C120.901 94.635 120.56 97.1784 120.204 99.711C119.848 102.244 119.48 104.83 119.183 107.401C119.016 108.859 118.908 110.322 118.692 111.769C118.692 111.823 118.768 111.845 118.778 111.769C118.962 110.506 119.232 109.258 119.459 107.989C119.686 106.72 119.896 105.473 120.096 104.209C120.506 101.66 120.874 99.1062 121.241 96.552C121.451 95.1048 121.678 93.663 121.84 92.232C121.603 91.6837 121.327 91.1531 121.014 90.6444C120.754 90.11 120.543 89.5533 120.382 88.9812C120.05 87.8224 119.947 86.6099 120.08 85.4118C120.361 82.971 121.624 80.7948 122.909 78.7428Z" fill="#263238"/>
<path d="M131.22 67.4136C130.374 68.6988 129.514 69.9714 128.639 71.2314C127.759 72.4896 126.9 73.764 126.004 75.0114V74.7144L128.164 76.977L128.342 77.1606L128.153 77.3442C127.246 78.2244 126.322 79.083 125.404 79.9524L125.48 79.7256C125.815 82.0638 126.171 84.402 126.468 86.7456C126.765 89.0892 127.084 91.4382 127.343 93.7656C126.895 91.4436 126.49 89.1162 126.101 86.7834C125.712 84.4506 125.345 82.1178 124.972 79.7634V79.6338L125.069 79.542C125.982 78.6672 126.889 77.787 127.813 76.9284V77.2956L125.642 75.06L125.507 74.9142L125.62 74.7576C126.527 73.521 127.472 72.306 128.39 71.0802C129.308 69.8544 130.264 68.6178 131.22 67.4136Z" fill="#A6A6A6"/>
<path d="M140.875 72.9378C143.332 76.1778 154.413 89.046 155.115 90.18C155.59 90.9414 152.917 94.5324 152.955 95.04C153.193 97.146 157.529 110.662 159.322 109.188C161.681 107.255 172.546 93.7818 170.969 87.9822C169.393 82.1826 144.655 68.2506 140.854 67.122C137.052 65.9934 138.445 69.768 140.875 72.9378Z" fill="#FFE4BF"/>
<path d="M154.829 90.3582C154.829 89.5374 141.869 75.7404 139.487 71.1288C137.106 66.5172 138.316 65.5344 144.396 68.4936C150.476 71.4528 169.144 82.2906 171.358 87.6798C173.572 93.069 161.422 107.881 161.422 107.881L152.923 93.5766C152.923 93.5766 154.818 91.0332 154.829 90.3582Z" fill="#EBEBEB"/>
<path d="M163.08 103.756C160.148 98.307 156.244 93.0258 155.628 92.0592C155.596 92.0106 155.525 92.0592 155.558 92.1078C156.211 93.0258 160.024 99.549 163.004 103.81C163.021 103.858 163.08 103.81 163.08 103.756Z" fill="#263238"/>
<path d="M150.017 84.3912C149.477 83.7216 148.97 83.0358 148.397 82.377C147.825 81.7182 147.263 81.0486 146.686 80.3952C145.523 79.0668 144.338 77.76 143.132 76.4748C143.132 76.4748 143.084 76.4748 143.1 76.4748C143.719 77.2596 144.347 78.0336 144.985 78.7968C144.585 78.462 144.158 78.1542 143.726 77.8572C143.726 77.8572 143.689 77.8572 143.726 77.8896C144.099 78.2568 144.488 78.6186 144.893 78.9696L145.487 79.4556C145.542 79.5036 145.6 79.5486 145.66 79.5906C145.919 79.8984 146.2 80.2062 146.432 80.5086C146.972 81.1728 147.56 81.837 148.144 82.4904C148.727 83.1438 149.364 83.7864 149.969 84.4452C149.985 84.4776 150.05 84.429 150.017 84.3912Z" fill="#263238"/>
<path d="M151.573 112.73C150.309 111.65 152.318 110.77 152.318 110.77C152.318 110.77 149.126 111.31 148.257 109.69C147.388 108.07 149.877 107.158 150.061 107.087C149.893 107.114 146.95 107.546 146.243 105.818C145.535 104.09 148.149 103.486 148.322 103.448C148.154 103.448 145.94 103.07 145.703 101.639C145.298 99.1764 151.718 99.6516 153.263 98.3556C153.263 98.3556 153.009 95.1156 152.971 95.0454C153.3 95.7948 153.87 96.4126 154.591 96.8004C155.93 97.3404 157.145 97.7238 157.631 98.4528C157.853 98.7718 157.967 99.1526 157.958 99.5407C157.95 99.9288 157.818 100.304 157.583 100.613C157.583 100.613 159.354 100.613 159.953 101.957C160.256 102.643 159.413 103.745 159.413 103.745C159.814 103.767 160.201 103.9 160.531 104.127C160.862 104.355 161.123 104.669 161.287 105.035C161.66 106.007 160.747 106.963 160.747 106.963C160.747 106.963 162.081 107.654 162.13 108.772C162.292 111.056 154.283 115.058 151.573 112.73Z" fill="#FFE4BF"/>
<path d="M160.682 107.163C160.709 107.163 160.731 107.163 160.709 107.201C158.312 109.245 155.349 110.51 152.215 110.83C152.113 110.83 152.059 110.678 152.167 110.651C155.159 109.907 158.028 108.732 160.682 107.163Z" fill="#263238"/>
<path d="M159.494 103.772C159.527 103.772 159.554 103.799 159.527 103.826C156.86 106.052 153.486 107.253 150.012 107.212C149.893 107.212 149.785 107.082 149.926 107.077C152.28 106.996 157.027 105.3 159.494 103.772Z" fill="#263238"/>
<path d="M148.079 103.361C151.475 103.361 154.532 102.281 157.513 100.732C157.55 100.732 157.572 100.769 157.545 100.791C156.298 101.952 154.305 102.751 152.685 103.237C151.199 103.719 149.613 103.803 148.084 103.48C148.014 103.464 148.003 103.361 148.079 103.361Z" fill="#263238"/>
<path d="M160.888 106.99C161.196 106.74 161.429 106.409 161.561 106.035C161.694 105.66 161.72 105.257 161.638 104.868C161.524 104.497 161.281 104.179 160.952 103.972C160.549 103.778 160.104 103.685 159.656 103.702C159.94 103.385 160.122 102.989 160.178 102.567C160.234 102.145 160.161 101.716 159.97 101.336C159.749 101.002 159.409 100.764 159.019 100.672C158.569 100.578 158.107 100.543 157.648 100.57C157.861 100.372 158.026 100.127 158.127 99.8536C158.228 99.5806 158.264 99.2875 158.231 98.9982C158.183 98.681 158.059 98.3799 157.872 98.1198C157.684 97.8597 157.437 97.648 157.151 97.5024C156.481 97.1675 155.774 96.9119 155.045 96.741C154.669 96.6411 154.306 96.4961 153.965 96.309C153.662 96.1254 153.236 95.769 153.193 95.4072C153.193 95.3316 153.079 95.3802 153.117 95.4072C153.264 95.6552 153.424 95.8949 153.598 96.1254C153.801 96.3465 154.034 96.5391 154.289 96.6978C154.93 97.0267 155.594 97.31 156.276 97.5456C156.872 97.7743 157.374 98.1965 157.702 98.7444C157.848 99.0308 157.912 99.3525 157.885 99.6732C157.859 99.9939 157.743 100.301 157.55 100.559C157.545 100.565 157.542 100.573 157.541 100.582C157.54 100.59 157.542 100.599 157.546 100.606C157.55 100.614 157.556 100.62 157.564 100.624C157.571 100.628 157.58 100.63 157.588 100.629C158 100.673 158.404 100.767 158.792 100.91C159.112 101.037 159.387 101.257 159.581 101.542C159.752 101.89 159.828 102.278 159.802 102.666C159.775 103.054 159.647 103.428 159.43 103.75C159.868 103.838 160.288 104 160.672 104.231C160.919 104.42 161.106 104.677 161.212 104.971C161.329 105.306 161.352 105.668 161.275 106.015C161.199 106.362 161.027 106.681 160.78 106.936V106.963C160.78 106.963 161.201 107.201 161.222 107.206C161.244 107.212 161.222 107.206 161.222 107.179C161.114 107.11 161.002 107.047 160.888 106.99Z" fill="#263238"/>
<path d="M138.861 67.1544C139.514 68.5422 140.157 69.9408 140.778 71.3448C141.399 72.7488 142.031 74.1474 142.625 75.5622L142.7 75.7404L142.538 75.8484L139.952 77.598L140.027 77.2362C140.729 78.2838 141.41 79.3476 142.096 80.4114L142.16 80.514L142.128 80.6274C141.431 82.7874 140.762 84.9474 140.038 87.0696C139.315 89.1918 138.596 91.3518 137.835 93.4794C138.418 91.2924 139.039 89.1216 139.676 86.9562C140.314 84.7908 140.978 82.6362 141.637 80.4762V80.6922C140.94 79.6122 140.243 78.5862 139.563 77.5224L139.417 77.301L139.633 77.1606L142.252 75.4596L142.166 75.7458C141.577 74.3256 141.037 72.8892 140.465 71.4636C139.892 70.038 139.39 68.58 138.861 67.1544Z" fill="#A6A6A6"/>
<path d="M141.615 69.8274C141.48 66.6846 137.565 65.8638 135.194 65.799C132.381 65.7234 130.567 66.1608 129.53 68.9904C128.45 71.9766 128.066 75.3462 127.861 78.5052C127.855 78.6269 127.8 78.7411 127.71 78.8226C127.619 78.9042 127.5 78.9463 127.378 78.9399C127.256 78.9334 127.142 78.8789 127.06 78.7883C126.979 78.6976 126.937 78.5783 126.943 78.4566C127.181 74.817 127.359 68.0562 130.696 65.7234C133.774 63.5634 142.306 64.5462 142.533 69.876C142.533 70.4646 141.637 70.416 141.615 69.8274Z" fill="#455A64"/>
<path d="M125.204 80.109C125.184 80.5261 125.287 80.94 125.501 81.2983C125.716 81.6567 126.032 81.9434 126.409 82.1223C126.786 82.3012 127.208 82.3641 127.621 82.3032C128.034 82.2422 128.42 82.0601 128.73 81.78C129.039 81.4998 129.259 81.134 129.361 80.729C129.463 80.324 129.442 79.8979 129.302 79.5046C129.161 79.1113 128.907 78.7685 128.572 78.5195C128.237 78.2704 127.836 78.1264 127.418 78.1056C126.86 78.0806 126.314 78.2769 125.899 78.6521C125.485 79.0272 125.235 79.5507 125.204 80.109Z" fill="#263238"/>
<path d="M126.047 80.1522C126.034 80.4027 126.096 80.6514 126.225 80.8666C126.354 81.0819 126.544 81.2542 126.77 81.3617C126.997 81.4693 127.25 81.5072 127.498 81.4708C127.747 81.4344 127.978 81.3253 128.165 81.1572C128.351 80.9891 128.483 80.7696 128.544 80.5264C128.606 80.2832 128.594 80.0273 128.51 79.7909C128.426 79.5545 128.274 79.3482 128.073 79.1982C127.872 79.0482 127.631 78.9611 127.381 78.948C127.214 78.9386 127.047 78.9623 126.889 79.0178C126.731 79.0734 126.586 79.1597 126.462 79.2717C126.338 79.3837 126.238 79.5192 126.166 79.6703C126.095 79.8215 126.054 79.9853 126.047 80.1522Z" fill="#EBEBEB"/>
<path d="M139.525 79.9524C138.186 88.9758 138.78 91.0764 139.617 92.0052C140.245 92.643 141.012 93.1271 141.858 93.42L142.063 92.8098C141.32 92.5465 140.646 92.1182 140.092 91.557C139.487 90.8874 138.834 88.965 140.157 80.0334L139.525 79.9524Z" fill="#C7C7C7"/>
<path d="M141.086 92.675L141.021 92.8295C140.894 93.135 141.038 93.486 141.344 93.6136L142.285 94.0068C142.591 94.1343 142.942 93.99 143.07 93.6845L143.134 93.5301C143.262 93.2246 143.117 92.8736 142.812 92.746L141.87 92.3528C141.565 92.2253 141.213 92.3695 141.086 92.675Z" fill="#263238"/>
<path d="M145.26 79.5366C147.728 85.9518 148.549 89.5212 147.841 90.774C147.423 91.4415 146.86 92.0063 146.194 92.4264L146.524 92.9664C147.283 92.4862 147.924 91.84 148.397 91.0764C149.24 89.586 148.505 86.1732 145.859 79.299L145.26 79.5366Z" fill="#C7C7C7"/>
<path d="M145.304 93.3313L145.4 93.468C145.592 93.7383 145.966 93.8025 146.236 93.6114L147.069 93.0222C147.34 92.8311 147.404 92.457 147.213 92.1867L147.116 92.05C146.925 91.7797 146.551 91.7155 146.281 91.9066L145.447 92.4958C145.177 92.6869 145.113 93.061 145.304 93.3313Z" fill="#263238"/>
<path d="M146.054 79.0074C145.601 77.5767 145.06 76.1754 144.434 74.8116C144.087 74.2176 143.587 73.7272 142.987 73.3914C142.862 73.3914 142.792 72.2736 142.754 71.3556C142.727 70.551 142.706 69.606 142.484 69.3684C142.36 69.2625 142.199 69.209 142.036 69.219C141.873 69.2291 141.72 69.302 141.61 69.4224C141.415 69.6816 141.507 70.6212 141.566 71.4258C141.637 72.3438 141.701 73.4616 141.566 73.4724C141.057 73.9017 140.657 74.4458 140.4 75.06C139.939 76.5252 139.59 78.0236 139.358 79.542C139.261 80.5032 139.579 80.5842 139.86 80.649C140.254 80.7354 140.47 80.4492 140.654 79.38C140.945 77.679 141.237 74.8386 142.382 74.7198C143.532 74.7198 144.32 77.5926 144.866 79.191C145.206 80.19 145.406 80.271 145.816 80.1306C146.065 80.0442 146.34 79.92 146.054 79.0074Z" fill="#263238"/>
<path d="M137.776 66.96C137.565 67.5 135.497 71.1234 132.916 71.1234C131.296 71.1234 131.684 65.5452 131.684 65.5452V65.1996L131.306 60.3396L137.354 57.5856L138.218 57.2292C138.218 57.2292 138.218 58.5684 138.218 60.2316V60.48C138.218 60.5772 138.218 60.6636 138.218 60.75C138.218 60.9984 138.218 61.2522 138.218 61.506C138.218 61.7598 138.218 61.8894 138.218 62.0892C138.218 62.289 138.218 62.4888 138.218 62.694C138.167 64.1244 138.019 65.5496 137.776 66.96Z" fill="#FFE4BF"/>
<path d="M138.208 60.2316C137.541 61.4864 136.609 62.5812 135.477 63.44C134.345 64.2988 133.04 64.9011 131.652 65.205L131.274 60.345L137.322 57.591L138.186 57.2346C138.186 57.2346 138.202 58.5684 138.208 60.2316Z" fill="#263238"/>
<path d="M125.194 53.0982C124.394 61.6248 129.416 63.0666 131.252 63.234C132.921 63.3906 138.623 63.6984 140.297 55.3014C141.971 46.9044 138.24 43.8372 134.46 43.2864C130.68 42.7356 125.987 44.5716 125.194 53.0982Z" fill="#FFE4BF"/>
<path d="M127.98 51.2028C128.174 51.1796 128.367 51.1453 128.558 51.1002C128.769 51.0944 128.972 51.0184 129.136 50.8842C129.177 50.831 129.2 50.7654 129.2 50.6979C129.2 50.6304 129.177 50.5648 129.136 50.5116C129.042 50.4154 128.925 50.3457 128.796 50.3096C128.667 50.2736 128.531 50.2725 128.401 50.3064C128.127 50.3379 127.873 50.4685 127.688 50.6736C127.649 50.7244 127.626 50.7856 127.621 50.8496C127.616 50.9136 127.63 50.9776 127.661 51.0338C127.692 51.09 127.738 51.136 127.795 51.166C127.852 51.196 127.916 51.2088 127.98 51.2028Z" fill="#263238"/>
<path d="M133.823 51.4296C133.629 51.3918 133.438 51.3431 133.25 51.2838C133.048 51.2586 132.859 51.1697 132.71 51.03C132.67 50.9764 132.648 50.911 132.648 50.8437C132.648 50.7764 132.67 50.711 132.71 50.6574C132.811 50.5676 132.933 50.5063 133.065 50.4797C133.197 50.4531 133.334 50.4623 133.461 50.5062C133.732 50.5568 133.975 50.7071 134.141 50.9274C134.177 50.9797 134.196 51.0412 134.197 51.1044C134.198 51.1676 134.181 51.2298 134.147 51.2831C134.113 51.3365 134.064 51.3788 134.007 51.4049C133.949 51.4309 133.885 51.4395 133.823 51.4296Z" fill="#263238"/>
<path d="M132.516 53.5464C132.516 53.5464 132.559 53.5464 132.559 53.6004C132.505 54.1782 132.559 54.8532 133.056 55.08C133.056 55.08 133.056 55.1178 133.056 55.1124C132.413 54.9828 132.376 54.0864 132.516 53.5464Z" fill="#263238"/>
<path d="M133.072 52.9686C134.017 52.9686 133.974 54.837 133.105 54.8478C132.235 54.8586 132.3 52.9794 133.072 52.9686Z" fill="#263238"/>
<path d="M133.439 53.0766C133.601 53.1846 133.758 53.379 133.979 53.4006C134.201 53.4222 134.384 53.2386 134.519 53.0496H134.552C134.552 53.4114 134.401 53.7786 134.012 53.8218C133.623 53.865 133.412 53.541 133.331 53.1738C133.315 53.1306 133.38 53.0334 133.439 53.0766Z" fill="#263238"/>
<path d="M129.001 53.3736C129.001 53.3736 128.952 53.3736 128.952 53.4276C128.952 54.0108 128.876 54.6804 128.347 54.864C128.347 54.864 128.347 54.9018 128.347 54.8964C128.995 54.8154 129.103 53.9244 129.001 53.3736Z" fill="#263238"/>
<path d="M128.488 52.758C127.548 52.677 127.451 54.5562 128.32 54.6318C129.19 54.7074 129.271 52.8282 128.488 52.758Z" fill="#263238"/>
<path d="M128.088 52.8606C127.937 52.9524 127.78 53.1252 127.602 53.1306C127.424 53.136 127.251 52.92 127.132 52.7202C127.132 52.7202 127.105 52.7202 127.1 52.7202C127.073 53.082 127.17 53.46 127.51 53.5464C127.85 53.6328 128.05 53.3304 128.174 53.0064C128.196 52.92 128.153 52.8228 128.088 52.8606Z" fill="#263238"/>
<path d="M132.041 58.185C131.906 58.3254 131.771 58.5144 131.56 58.536C131.345 58.5364 131.131 58.4922 130.934 58.4064C130.934 58.4064 130.896 58.4064 130.907 58.4064C130.992 58.5195 131.106 58.6073 131.238 58.6606C131.369 58.7138 131.512 58.7305 131.652 58.7088C131.772 58.6738 131.879 58.6037 131.959 58.5075C132.039 58.4112 132.088 58.2933 132.1 58.1688C132.111 58.1742 132.062 58.1634 132.041 58.185Z" fill="#263238"/>
<path d="M129.676 55.9926C129.676 55.9926 129.53 56.862 129.514 57.2724C129.514 57.3102 129.611 57.3318 129.751 57.3426C130.101 57.4179 130.466 57.3952 130.804 57.2771C131.142 57.159 131.441 56.95 131.668 56.673C131.701 56.6352 131.668 56.592 131.614 56.6136C131.078 56.9565 130.445 57.1157 129.811 57.0672C129.811 56.9538 130.118 55.593 130.054 55.5822C129.734 55.6029 129.418 55.6646 129.114 55.7658C129.373 53.9514 129.919 52.1964 130.151 50.3658C130.151 50.3515 130.145 50.3377 130.135 50.3276C130.125 50.3175 130.111 50.3118 130.097 50.3118C130.082 50.3118 130.069 50.3175 130.059 50.3276C130.049 50.3377 130.043 50.3515 130.043 50.3658C129.399 52.2309 128.943 54.1557 128.682 56.1114C128.655 56.3382 129.514 56.0574 129.676 55.9926Z" fill="#263238"/>
<path d="M130.032 57.132C130.23 57.4358 130.504 57.6831 130.826 57.8502C130.995 57.9273 131.182 57.9535 131.366 57.9258C131.792 57.8502 131.83 57.4722 131.776 57.1374C131.751 56.9518 131.702 56.7703 131.63 56.5974C131.168 56.9416 130.608 57.1289 130.032 57.132Z" fill="#263238"/>
<path d="M130.826 57.8502C130.995 57.9273 131.182 57.9536 131.366 57.9258C131.792 57.8502 131.83 57.4722 131.776 57.1374C131.561 57.1353 131.352 57.204 131.18 57.3328C131.008 57.4617 130.884 57.6435 130.826 57.8502Z" fill="#FF9CBD"/>
<path d="M125.696 50.085C126.7 50.409 130.28 48.1842 131.717 44.982C131.967 46.8472 132.861 48.5663 134.244 49.842C136.577 52.002 138.791 52.164 138.791 52.164C138.791 52.164 139.482 56.0196 140.119 56.106C140.756 56.1924 144.769 42.9894 133.547 42.8382C133.547 42.8382 130.264 42.5088 128.212 44.4258C126.16 46.3428 125.696 50.085 125.696 50.085Z" fill="#263238"/>
<path d="M138.883 54.9882C138.883 54.9882 140.767 52.3314 141.977 53.001C143.186 53.6706 141.755 57.5424 140.324 58.0662C140.146 58.1453 139.953 58.1875 139.758 58.1901C139.563 58.1928 139.369 58.156 139.188 58.0818C139.008 58.0077 138.844 57.8977 138.707 57.7586C138.57 57.6195 138.463 57.4541 138.391 57.2724L138.883 54.9882Z" fill="#FFE4BF"/>
<path d="M141.539 54.1026C141.539 54.1026 141.566 54.1026 141.539 54.1404C140.54 54.54 140.006 55.458 139.633 56.4192C139.692 56.3194 139.772 56.2335 139.867 56.1675C139.962 56.1015 140.07 56.057 140.184 56.037C140.298 56.0169 140.415 56.0219 140.527 56.0515C140.639 56.0812 140.743 56.1348 140.832 56.2086C140.859 56.2086 140.832 56.268 140.805 56.2572C140.629 56.2021 140.441 56.202 140.265 56.257C140.09 56.312 139.935 56.4195 139.822 56.565C139.635 56.8096 139.476 57.0739 139.347 57.3534C139.298 57.4452 139.136 57.3966 139.174 57.294C139.169 55.998 140.173 54.2214 141.539 54.1026Z" fill="#263238"/>
<path d="M131.636 66.8898C131.263 67.0842 131.809 74.0286 132.046 74.4174C132.133 74.5632 136.69 70.9614 138.208 66.3174C138.208 66.3336 135.54 64.8702 131.636 66.8898Z" fill="#FFE4BF"/>
<path d="M123.645 80.7944L102.856 87.2654L111.278 114.324L132.067 107.853L123.645 80.7944Z" fill="#455A64"/>
<path d="M108.735 87.1853L118.584 84.1063L117.651 81.1221L107.802 84.2012L108.735 87.1853Z" fill="#A6A6A6"/>
<path d="M110.041 83.5002L111.256 83.1222L110.824 81.7452L113.773 80.8218L114.205 82.1988L115.414 81.8208L114.631 79.3152L109.242 81L110.041 83.5002Z" fill="#A6A6A6"/>
<path d="M127.672 91.1034C127.993 91.4317 128.206 91.8503 128.282 92.3029C128.358 92.7556 128.294 93.2207 128.099 93.636C128.862 93.794 129.546 94.2143 130.032 94.824C130.837 95.9364 129.443 97.6914 129.443 97.6914C130.202 98.0196 130.844 98.5692 131.285 99.2682C131.949 100.408 130.799 102.379 130.799 102.379C131.328 103.066 131.592 103.921 131.544 104.787C131.323 107.093 128.153 108.67 126.144 109.696C124.135 110.722 117.504 111.753 116.257 112.077L109.566 99.2736C109.566 99.2736 117.245 92.124 119.772 91.2546C121.905 90.5202 126.398 89.8938 127.672 91.1034Z" fill="#FFE4BF"/>
<path d="M110.479 98.442C108.189 100.202 101.299 106.979 102.919 110.43C104.539 113.881 110.068 113.535 117.72 111.78L110.479 98.442Z" fill="#AD6359"/>
<path d="M110.479 98.442C108.189 100.202 100.953 106.817 102.784 111.251C104.242 114.772 110.743 115.198 118.417 113.411L110.479 98.442Z" fill="#EBEBEB"/>
<path d="M114.48 113.557C112.082 107.86 108.691 102.217 108.173 101.207C108.171 101.2 108.168 101.194 108.163 101.189C108.159 101.184 108.153 101.18 108.147 101.177C108.141 101.175 108.134 101.174 108.127 101.174C108.121 101.175 108.114 101.177 108.108 101.181C108.102 101.184 108.098 101.189 108.094 101.195C108.09 101.201 108.088 101.207 108.088 101.214C108.087 101.221 108.088 101.227 108.091 101.234C108.093 101.24 108.097 101.246 108.103 101.25C108.643 102.227 111.834 109.08 114.399 113.611C114.421 113.659 114.48 113.616 114.48 113.557Z" fill="#263238"/>
<path d="M127.899 93.4794C125.453 93.7116 123.206 94.662 120.911 95.4828C120.901 95.4864 120.893 95.4938 120.889 95.5034C120.884 95.513 120.884 95.5241 120.887 95.5341C120.891 95.5441 120.898 95.5523 120.908 95.5569C120.917 95.5614 120.928 95.562 120.938 95.5584C123.212 94.7214 125.626 94.338 127.926 93.5928C127.939 93.5871 127.949 93.5772 127.955 93.5648C127.961 93.5525 127.962 93.5384 127.959 93.525C127.956 93.5116 127.948 93.4997 127.937 93.4914C127.926 93.4831 127.913 93.4788 127.899 93.4794Z" fill="#263238"/>
<path d="M129.319 97.5456C128.767 97.655 128.231 97.8365 127.726 98.0856C127.186 98.3178 126.646 98.55 126.106 98.7984C125.026 99.2898 123.946 99.8028 122.893 100.354C122.845 100.354 122.893 100.456 122.893 100.429C123.973 99.9432 125.053 99.4734 126.166 99.0306C126.706 98.8092 127.246 98.5932 127.823 98.3826C128.359 98.2125 128.875 97.9862 129.362 97.7076C129.384 97.7019 129.402 97.6879 129.413 97.6686C129.424 97.6494 129.428 97.6265 129.422 97.605C129.416 97.5835 129.402 97.5652 129.383 97.5541C129.364 97.5429 129.341 97.5399 129.319 97.5456Z" fill="#263238"/>
<path d="M130.75 102.395C130.255 102.493 129.78 102.676 129.346 102.935L127.872 103.626C126.889 104.085 125.906 104.539 124.907 104.965C124.859 104.965 124.907 105.062 124.934 105.041C125.955 104.62 126.976 104.209 127.991 103.777L129.481 103.129C129.951 102.971 130.39 102.731 130.777 102.422C130.777 102.422 130.777 102.395 130.75 102.395Z" fill="#263238"/>
<path d="M110.16 98.5608C109.357 99.1523 108.596 99.7983 107.881 100.494L107.341 101.034L107.109 101.185C106.785 101.401 106.461 101.623 106.159 101.866C105.572 102.343 105.017 102.857 104.495 103.405C104.458 103.448 104.495 103.502 104.56 103.464C105.13 102.951 105.739 102.481 106.38 102.06L106.628 101.893C106.326 102.222 106.034 102.562 105.764 102.913C105.036 103.845 104.365 104.821 103.756 105.835C103.729 105.883 103.804 105.921 103.831 105.872C104.949 104.08 109.82 99.2844 110.354 98.7066C110.889 98.1288 110.581 98.2314 110.16 98.5608Z" fill="#263238"/>
<path d="M184.68 59.0166C181.257 63.5937 176.891 67.3818 171.877 70.1244C166.867 67.3798 162.504 63.5919 159.084 59.0166C154.58 53.0766 154.802 43.7184 161.244 41.6988C168.394 39.4686 171.893 50.22 171.893 50.22C171.893 50.22 175.451 39.42 182.531 41.7258C188.957 43.7886 189.2 53.055 184.68 59.0166Z" fill="#F8F8F8"/>
<path d="M166.865 65.4102L164.927 57.321L163.658 60.1722H155.806V59.2596H163.064L165.181 54.4914L166.698 60.7986L168.842 47.7306L170.732 58.0662L172.228 53.7516L174.582 60.8148L175.106 59.2542H187.996V60.1668H175.759L174.582 63.6984L172.211 56.5866L170.456 61.6518L168.89 53.0766L166.865 65.4102Z" fill="#0088B1"/>
<path d="M225.239 196.517V204.79H221.935V200.081H210.481V204.79H207.176V196.517H225.239Z" fill="#F8F8F8"/>
<path opacity="0.1" d="M210.481 201.15H207.176V204.79H210.481V201.15Z" fill="black"/>
<path opacity="0.1" d="M225.239 201.15H221.935V204.79H225.239V201.15Z" fill="black"/>
<path d="M240.705 233.609H191.722L194.422 202.97H238.005L240.705 233.609Z" fill="#F8F8F8"/>
<path opacity="0.1" d="M216.216 233.609H191.722L194.422 202.97H216.216V233.609Z" fill="black"/>
<path d="M223.754 216.508V220.072H217.998V225.828H214.434V220.072H208.678V216.508H214.434V210.751H217.998V216.508H223.754Z" fill="#0088B1"/>
</svg>
